<?xml version="1.0" ?><!DOCTYPE svg  PUBLIC '-//W3C//DTD SVG 1.1//EN'  'http://www.w3.org/Graphics/SVG/1.1/DTD/svg11.dtd'><svg enable-background="new 0 0 24 24" height="24px" id="Layer_1" version="1.1" viewBox="0 0 24 24" width="24px" xml:space="preserve" xmlns="http://www.w3.org/2000/svg" xmlns:xlink="http://www.w3.org/1999/xlink"><g><path d="M4,16.063c-0.276,0-0.5-0.224-0.5-0.5V8.542c0-0.276,0.224-0.5,0.5-0.5s0.5,0.224,0.5,0.5v7.021   C4.5,15.839,4.276,16.063,4,16.063z"/><path d="M17,16.063c-0.275,0-0.5-0.224-0.5-0.5V8.542c0-0.276,0.225-0.5,0.5-0.5s0.5,0.224,0.5,0.5v7.021   C17.5,15.839,17.275,16.063,17,16.063z"/><path d="M8.031,16.063c-0.222,0-0.418-0.146-0.48-0.357l-1.059-3.633L6.5,15.563c0,0.275-0.223,0.5-0.499,0.5c0,0,0,0-0.001,0   c-0.276,0-0.5-0.223-0.5-0.498L5.484,8.543c0-0.249,0.182-0.46,0.429-0.496C6.154,8.02,6.394,8.162,6.464,8.4l1.558,5.344   l1.497-5.338c0.067-0.24,0.3-0.389,0.55-0.359c0.247,0.033,0.432,0.245,0.432,0.495v7.021c0,0.275-0.224,0.5-0.5,0.5   s-0.5-0.225-0.5-0.5v-3.386l-0.987,3.521c-0.06,0.216-0.256,0.364-0.479,0.364C8.033,16.063,8.032,16.063,8.031,16.063z"/><path d="M22,19H2c-0.827,0-1.5-0.673-1.5-1.5v-11C0.5,5.673,1.173,5,2,5h20c0.827,0,1.5,0.673,1.5,1.5v11   C23.5,18.327,22.827,19,22,19z M2,6C1.724,6,1.5,6.225,1.5,6.5v11C1.5,17.775,1.724,18,2,18h20c0.275,0,0.5-0.225,0.5-0.5v-11   C22.5,6.225,22.275,6,22,6H2z"/><path d="M19.063,16H17c-0.275,0-0.5-0.225-0.5-0.5v-5c0-0.275,0.225-0.5,0.5-0.5h2.063c0.791,0,1.438,0.645,1.438,1.438v3.125   C20.5,15.355,19.855,16,19.063,16z M17.5,15h1.563c0.242,0,0.438-0.195,0.438-0.438v-3.125c0-0.241-0.196-0.438-0.438-0.438H17.5   V15z"/><path d="M14.063,16H12c-0.276,0-0.5-0.225-0.5-0.5v-7C11.5,8.225,11.724,8,12,8h2.063C14.854,8,15.5,8.645,15.5,9.438v5.125   C15.5,15.355,14.855,16,14.063,16z M12.5,15h1.563c0.242,0,0.438-0.195,0.438-0.438V9.438C14.501,9.197,14.305,9,14.063,9H12.5V15z   "/></g></svg>